<mxfile host="app.diagrams.net" agent="Mozilla/5.0 (Windows NT 10.0; Win64; x64) AppleWebKit/537.36 (KHTML, like Gecko) Chrome/141.0.0.0 Safari/537.36 Edg/141.0.0.0" version="28.2.5">
  <diagram name="Страница — 1" id="wUjS0XWRf-zuJ21mLQtQ">
    <mxGraphModel dx="4372" dy="1890" grid="1" gridSize="10" guides="1" tooltips="1" connect="1" arrows="1" fold="1" page="1" pageScale="1" pageWidth="827" pageHeight="1169" math="0" shadow="0">
      <root>
        <mxCell id="0" />
        <mxCell id="1" parent="0" />
        <mxCell id="vVyOFuxEOE8luWcUB-tx-1" value="Master" style="swimlane;fontStyle=1;align=center;verticalAlign=top;childLayout=stackLayout;horizontal=1;startSize=26;horizontalStack=0;resizeParent=1;resizeParentMax=0;resizeLast=0;collapsible=1;marginBottom=0;whiteSpace=wrap;html=1;" vertex="1" parent="1">
          <mxGeometry x="270" y="880" width="160" height="240" as="geometry" />
        </mxCell>
        <mxCell id="vVyOFuxEOE8luWcUB-tx-2" value="id: int (auto-increment)&lt;div&gt;name: String&lt;/div&gt;&lt;div&gt;salary: BigDecimal&lt;/div&gt;&lt;div&gt;isAvailable: boolean&lt;br&gt;&lt;div&gt;&lt;br&gt;&lt;/div&gt;&lt;/div&gt;" style="text;strokeColor=none;fillColor=none;align=left;verticalAlign=top;spacingLeft=4;spacingRight=4;overflow=hidden;rotatable=0;points=[[0,0.5],[1,0.5]];portConstraint=eastwest;whiteSpace=wrap;html=1;" vertex="1" parent="vVyOFuxEOE8luWcUB-tx-1">
          <mxGeometry y="26" width="160" height="74" as="geometry" />
        </mxCell>
        <mxCell id="vVyOFuxEOE8luWcUB-tx-3" value="" style="line;strokeWidth=1;fillColor=none;align=left;verticalAlign=middle;spacingTop=-1;spacingLeft=3;spacingRight=3;rotatable=0;labelPosition=right;points=[];portConstraint=eastwest;strokeColor=inherit;" vertex="1" parent="vVyOFuxEOE8luWcUB-tx-1">
          <mxGeometry y="100" width="160" height="8" as="geometry" />
        </mxCell>
        <mxCell id="vVyOFuxEOE8luWcUB-tx-4" value="+ getId(): int&lt;div&gt;+ Master(name: String, salary: BigDecimal)&lt;/div&gt;&lt;div&gt;+ isAvailable(): boolean&lt;/div&gt;&lt;div&gt;+ setAvailable(available: boolean)&lt;/div&gt;&lt;div&gt;+ pocessTheOrder()&lt;/div&gt;&lt;div&gt;+ finishTheOrder()&lt;br&gt;&lt;div&gt;&lt;br&gt;&lt;/div&gt;&lt;/div&gt;" style="text;strokeColor=none;fillColor=none;align=left;verticalAlign=top;spacingLeft=4;spacingRight=4;overflow=hidden;rotatable=0;points=[[0,0.5],[1,0.5]];portConstraint=eastwest;whiteSpace=wrap;html=1;" vertex="1" parent="vVyOFuxEOE8luWcUB-tx-1">
          <mxGeometry y="108" width="160" height="132" as="geometry" />
        </mxCell>
        <mxCell id="vVyOFuxEOE8luWcUB-tx-42" style="edgeStyle=orthogonalEdgeStyle;rounded=0;orthogonalLoop=1;jettySize=auto;html=1;exitX=0.5;exitY=0;exitDx=0;exitDy=0;" edge="1" parent="1" source="vVyOFuxEOE8luWcUB-tx-9" target="vVyOFuxEOE8luWcUB-tx-35">
          <mxGeometry relative="1" as="geometry" />
        </mxCell>
        <mxCell id="vVyOFuxEOE8luWcUB-tx-9" value="Order" style="swimlane;fontStyle=1;align=center;verticalAlign=top;childLayout=stackLayout;horizontal=1;startSize=26;horizontalStack=0;resizeParent=1;resizeParentMax=0;resizeLast=0;collapsible=1;marginBottom=0;whiteSpace=wrap;html=1;" vertex="1" parent="1">
          <mxGeometry x="1260" y="860" width="230" height="390" as="geometry" />
        </mxCell>
        <mxCell id="vVyOFuxEOE8luWcUB-tx-10" value="id: int (auto-increment)&lt;div&gt;description: String&lt;/div&gt;&lt;div&gt;master: Master&lt;/div&gt;&lt;div&gt;garageSpot: GarageSpot&lt;/div&gt;&lt;div&gt;startTile: LocalDateTime&lt;/div&gt;&lt;div&gt;endTime: LocalDateTime&lt;/div&gt;&lt;div&gt;orderStatus: OrderStatus&lt;/div&gt;" style="text;strokeColor=none;fillColor=none;align=left;verticalAlign=top;spacingLeft=4;spacingRight=4;overflow=hidden;rotatable=0;points=[[0,0.5],[1,0.5]];portConstraint=eastwest;whiteSpace=wrap;html=1;" vertex="1" parent="vVyOFuxEOE8luWcUB-tx-9">
          <mxGeometry y="26" width="230" height="114" as="geometry" />
        </mxCell>
        <mxCell id="vVyOFuxEOE8luWcUB-tx-11" value="" style="line;strokeWidth=1;fillColor=none;align=left;verticalAlign=middle;spacingTop=-1;spacingLeft=3;spacingRight=3;rotatable=0;labelPosition=right;points=[];portConstraint=eastwest;strokeColor=inherit;" vertex="1" parent="vVyOFuxEOE8luWcUB-tx-9">
          <mxGeometry y="140" width="230" height="8" as="geometry" />
        </mxCell>
        <mxCell id="vVyOFuxEOE8luWcUB-tx-12" value="+ getId(): int&lt;div&gt;+ Order(description: String, master: Master, garageSpot: GarageSpot, startTime: LocalDateTime, endTime: LocalDateTime)&lt;/div&gt;&lt;div&gt;+ getMaster(): Master&lt;/div&gt;&lt;div&gt;+ getGarageSpot(): GarageSpot&lt;/div&gt;&lt;div&gt;+ setOrderStatus(orderStatus: OrderStatus)&lt;/div&gt;&lt;div&gt;+ getOrderStatus(): OrderStatus&lt;/div&gt;&lt;div&gt;+ setEndTime(endTime: LocalDateTime)&lt;/div&gt;&lt;div&gt;+ getEndTime(): LocalDateTime&lt;/div&gt;&lt;div&gt;&lt;div&gt;+ setStartTime(startTime: LocalDateTime)&lt;/div&gt;&lt;div&gt;+ getStartTime(): LocalDateTime&lt;/div&gt;&lt;/div&gt;" style="text;strokeColor=none;fillColor=none;align=left;verticalAlign=top;spacingLeft=4;spacingRight=4;overflow=hidden;rotatable=0;points=[[0,0.5],[1,0.5]];portConstraint=eastwest;whiteSpace=wrap;html=1;" vertex="1" parent="vVyOFuxEOE8luWcUB-tx-9">
          <mxGeometry y="148" width="230" height="242" as="geometry" />
        </mxCell>
        <mxCell id="vVyOFuxEOE8luWcUB-tx-14" value="GarageSpot" style="swimlane;fontStyle=1;align=center;verticalAlign=top;childLayout=stackLayout;horizontal=1;startSize=26;horizontalStack=0;resizeParent=1;resizeParentMax=0;resizeLast=0;collapsible=1;marginBottom=0;whiteSpace=wrap;html=1;" vertex="1" parent="1">
          <mxGeometry x="-250" y="910" width="160" height="150" as="geometry" />
        </mxCell>
        <mxCell id="vVyOFuxEOE8luWcUB-tx-15" value="id: int (auto-increment)&lt;div&gt;isFree: boolean&lt;/div&gt;" style="text;strokeColor=none;fillColor=none;align=left;verticalAlign=top;spacingLeft=4;spacingRight=4;overflow=hidden;rotatable=0;points=[[0,0.5],[1,0.5]];portConstraint=eastwest;whiteSpace=wrap;html=1;" vertex="1" parent="vVyOFuxEOE8luWcUB-tx-14">
          <mxGeometry y="26" width="160" height="44" as="geometry" />
        </mxCell>
        <mxCell id="vVyOFuxEOE8luWcUB-tx-16" value="" style="line;strokeWidth=1;fillColor=none;align=left;verticalAlign=middle;spacingTop=-1;spacingLeft=3;spacingRight=3;rotatable=0;labelPosition=right;points=[];portConstraint=eastwest;strokeColor=inherit;" vertex="1" parent="vVyOFuxEOE8luWcUB-tx-14">
          <mxGeometry y="70" width="160" height="8" as="geometry" />
        </mxCell>
        <mxCell id="vVyOFuxEOE8luWcUB-tx-17" value="+ occupy()&lt;div&gt;+ freeUp()&lt;/div&gt;&lt;div&gt;+ getId(): int&lt;/div&gt;&lt;div&gt;+ GarageSpot()&lt;/div&gt;" style="text;strokeColor=none;fillColor=none;align=left;verticalAlign=top;spacingLeft=4;spacingRight=4;overflow=hidden;rotatable=0;points=[[0,0.5],[1,0.5]];portConstraint=eastwest;whiteSpace=wrap;html=1;" vertex="1" parent="vVyOFuxEOE8luWcUB-tx-14">
          <mxGeometry y="78" width="160" height="72" as="geometry" />
        </mxCell>
        <mxCell id="vVyOFuxEOE8luWcUB-tx-18" value="OrderManager" style="swimlane;fontStyle=1;align=center;verticalAlign=top;childLayout=stackLayout;horizontal=1;startSize=26;horizontalStack=0;resizeParent=1;resizeParentMax=0;resizeLast=0;collapsible=1;marginBottom=0;whiteSpace=wrap;html=1;" vertex="1" parent="1">
          <mxGeometry x="940" y="1430" width="260" height="280" as="geometry" />
        </mxCell>
        <mxCell id="vVyOFuxEOE8luWcUB-tx-19" value="orders: List&amp;lt;Order&amp;gt;&amp;nbsp;[0..*]" style="text;strokeColor=none;fillColor=none;align=left;verticalAlign=top;spacingLeft=4;spacingRight=4;overflow=hidden;rotatable=0;points=[[0,0.5],[1,0.5]];portConstraint=eastwest;whiteSpace=wrap;html=1;" vertex="1" parent="vVyOFuxEOE8luWcUB-tx-18">
          <mxGeometry y="26" width="260" height="26" as="geometry" />
        </mxCell>
        <mxCell id="vVyOFuxEOE8luWcUB-tx-20" value="" style="line;strokeWidth=1;fillColor=none;align=left;verticalAlign=middle;spacingTop=-1;spacingLeft=3;spacingRight=3;rotatable=0;labelPosition=right;points=[];portConstraint=eastwest;strokeColor=inherit;" vertex="1" parent="vVyOFuxEOE8luWcUB-tx-18">
          <mxGeometry y="52" width="260" height="8" as="geometry" />
        </mxCell>
        <mxCell id="vVyOFuxEOE8luWcUB-tx-21" value="+ OrderManager(orders: List&amp;lt;Order&amp;gt; [0..*])&lt;div&gt;- overlaps(start1: LocalDateTime, end1: LocalDateTime, start2: LocalDateTime, end2: LocalDateTime): boolean&lt;/div&gt;&lt;div&gt;- isMasterAvailable(master: Master, start: LocalDateTime, end: LocalDateTime): boolean&lt;/div&gt;&lt;div&gt;-&amp;nbsp;&lt;span style=&quot;background-color: transparent; color: light-dark(rgb(0, 0, 0), rgb(255, 255, 255));&quot;&gt;isSpotAvailable(garageSpot: GarageSpot, start: LocalDateTime, end: LocalDateTime): boolean&lt;/span&gt;&lt;/div&gt;&lt;div&gt;&lt;span style=&quot;background-color: transparent; color: light-dark(rgb(0, 0, 0), rgb(255, 255, 255));&quot;&gt;+ addOrder(order: Order): OrderResult&lt;/span&gt;&lt;/div&gt;&lt;div&gt;&lt;span style=&quot;background-color: transparent; color: light-dark(rgb(0, 0, 0), rgb(255, 255, 255));&quot;&gt;+ deleteOrder(order: Order): OrderResult&lt;/span&gt;&lt;/div&gt;&lt;div&gt;+ closeOrder(order: Order): OrderResult&lt;/div&gt;&lt;div&gt;+ cancelOrder(order: Order): OrderResult&lt;/div&gt;&lt;div&gt;+ shiftOrder(order: Order): Result Order&lt;/div&gt;" style="text;strokeColor=none;fillColor=none;align=left;verticalAlign=top;spacingLeft=4;spacingRight=4;overflow=hidden;rotatable=0;points=[[0,0.5],[1,0.5]];portConstraint=eastwest;whiteSpace=wrap;html=1;" vertex="1" parent="vVyOFuxEOE8luWcUB-tx-18">
          <mxGeometry y="60" width="260" height="220" as="geometry" />
        </mxCell>
        <mxCell id="vVyOFuxEOE8luWcUB-tx-22" value="MasterManager" style="swimlane;fontStyle=1;align=center;verticalAlign=top;childLayout=stackLayout;horizontal=1;startSize=26;horizontalStack=0;resizeParent=1;resizeParentMax=0;resizeLast=0;collapsible=1;marginBottom=0;whiteSpace=wrap;html=1;" vertex="1" parent="1">
          <mxGeometry x="270" y="1430" width="160" height="170" as="geometry" />
        </mxCell>
        <mxCell id="vVyOFuxEOE8luWcUB-tx-23" value="masters: List&amp;lt;Master&amp;gt;&amp;nbsp;[0..*]" style="text;strokeColor=none;fillColor=none;align=left;verticalAlign=top;spacingLeft=4;spacingRight=4;overflow=hidden;rotatable=0;points=[[0,0.5],[1,0.5]];portConstraint=eastwest;whiteSpace=wrap;html=1;" vertex="1" parent="vVyOFuxEOE8luWcUB-tx-22">
          <mxGeometry y="26" width="160" height="26" as="geometry" />
        </mxCell>
        <mxCell id="vVyOFuxEOE8luWcUB-tx-24" value="" style="line;strokeWidth=1;fillColor=none;align=left;verticalAlign=middle;spacingTop=-1;spacingLeft=3;spacingRight=3;rotatable=0;labelPosition=right;points=[];portConstraint=eastwest;strokeColor=inherit;" vertex="1" parent="vVyOFuxEOE8luWcUB-tx-22">
          <mxGeometry y="52" width="160" height="8" as="geometry" />
        </mxCell>
        <mxCell id="vVyOFuxEOE8luWcUB-tx-25" value="+ addMaster(master: Master): MasterResult&lt;div&gt;+ deleteMaster(master: Master): MasterResult&lt;/div&gt;&lt;div&gt;+ MasterManager(masters: List&amp;lt;Master&amp;gt; [0..*])&lt;/div&gt;" style="text;strokeColor=none;fillColor=none;align=left;verticalAlign=top;spacingLeft=4;spacingRight=4;overflow=hidden;rotatable=0;points=[[0,0.5],[1,0.5]];portConstraint=eastwest;whiteSpace=wrap;html=1;" vertex="1" parent="vVyOFuxEOE8luWcUB-tx-22">
          <mxGeometry y="60" width="160" height="110" as="geometry" />
        </mxCell>
        <mxCell id="vVyOFuxEOE8luWcUB-tx-26" value="GarageSpotManager" style="swimlane;fontStyle=1;align=center;verticalAlign=top;childLayout=stackLayout;horizontal=1;startSize=26;horizontalStack=0;resizeParent=1;resizeParentMax=0;resizeLast=0;collapsible=1;marginBottom=0;whiteSpace=wrap;html=1;" vertex="1" parent="1">
          <mxGeometry x="-100" y="1445" width="203" height="190" as="geometry" />
        </mxCell>
        <mxCell id="vVyOFuxEOE8luWcUB-tx-27" value="garageSpots: List&amp;lt;GarageSpot&amp;gt;&amp;nbsp;[0..*]" style="text;strokeColor=none;fillColor=none;align=left;verticalAlign=top;spacingLeft=4;spacingRight=4;overflow=hidden;rotatable=0;points=[[0,0.5],[1,0.5]];portConstraint=eastwest;whiteSpace=wrap;html=1;" vertex="1" parent="vVyOFuxEOE8luWcUB-tx-26">
          <mxGeometry y="26" width="203" height="44" as="geometry" />
        </mxCell>
        <mxCell id="vVyOFuxEOE8luWcUB-tx-28" value="" style="line;strokeWidth=1;fillColor=none;align=left;verticalAlign=middle;spacingTop=-1;spacingLeft=3;spacingRight=3;rotatable=0;labelPosition=right;points=[];portConstraint=eastwest;strokeColor=inherit;" vertex="1" parent="vVyOFuxEOE8luWcUB-tx-26">
          <mxGeometry y="70" width="203" height="8" as="geometry" />
        </mxCell>
        <mxCell id="vVyOFuxEOE8luWcUB-tx-29" value="+ addGarageSpot(garageSpot: GarageSpot): GarageSpotResult&lt;div&gt;+ deleteGarageSpot(garageSpot: GarageSpot):&amp;nbsp;&lt;span style=&quot;background-color: transparent; color: light-dark(rgb(0, 0, 0), rgb(255, 255, 255));&quot;&gt;GarageSpotResult&lt;/span&gt;&lt;/div&gt;&lt;div&gt;&lt;span style=&quot;background-color: transparent; color: light-dark(rgb(0, 0, 0), rgb(255, 255, 255));&quot;&gt;+ GarageSpotManager(garageSpots: List&amp;lt;GarageSpot&amp;gt;&amp;nbsp;&lt;/span&gt;&lt;span style=&quot;background-color: transparent; color: light-dark(rgb(0, 0, 0), rgb(255, 255, 255));&quot;&gt;[0..*]&lt;/span&gt;&lt;span style=&quot;background-color: transparent; color: light-dark(rgb(0, 0, 0), rgb(255, 255, 255));&quot;&gt;)&lt;/span&gt;&lt;/div&gt;" style="text;strokeColor=none;fillColor=none;align=left;verticalAlign=top;spacingLeft=4;spacingRight=4;overflow=hidden;rotatable=0;points=[[0,0.5],[1,0.5]];portConstraint=eastwest;whiteSpace=wrap;html=1;" vertex="1" parent="vVyOFuxEOE8luWcUB-tx-26">
          <mxGeometry y="78" width="203" height="112" as="geometry" />
        </mxCell>
        <mxCell id="vVyOFuxEOE8luWcUB-tx-30" value="AutoService" style="swimlane;fontStyle=1;align=center;verticalAlign=top;childLayout=stackLayout;horizontal=1;startSize=26;horizontalStack=0;resizeParent=1;resizeParentMax=0;resizeLast=0;collapsible=1;marginBottom=0;whiteSpace=wrap;html=1;" vertex="1" parent="1">
          <mxGeometry x="90" y="2260" width="594" height="300" as="geometry" />
        </mxCell>
        <mxCell id="vVyOFuxEOE8luWcUB-tx-31" value="&lt;div style=&quot;&quot;&gt;&lt;span style=&quot;background-color: transparent; color: light-dark(rgb(0, 0, 0), rgb(255, 255, 255));&quot;&gt;garageManager: GarageManager&lt;/span&gt;&lt;/div&gt;&lt;div style=&quot;&quot;&gt;orderManager: OrderManager&lt;/div&gt;&lt;div style=&quot;&quot;&gt;masterManager: MasterManager&lt;/div&gt;" style="text;strokeColor=none;fillColor=none;align=left;verticalAlign=top;spacingLeft=4;spacingRight=4;overflow=hidden;rotatable=0;points=[[0,0.5],[1,0.5]];portConstraint=eastwest;whiteSpace=wrap;html=1;" vertex="1" parent="vVyOFuxEOE8luWcUB-tx-30">
          <mxGeometry y="26" width="594" height="74" as="geometry" />
        </mxCell>
        <mxCell id="vVyOFuxEOE8luWcUB-tx-32" value="" style="line;strokeWidth=1;fillColor=none;align=left;verticalAlign=middle;spacingTop=-1;spacingLeft=3;spacingRight=3;rotatable=0;labelPosition=right;points=[];portConstraint=eastwest;strokeColor=inherit;" vertex="1" parent="vVyOFuxEOE8luWcUB-tx-30">
          <mxGeometry y="100" width="594" height="8" as="geometry" />
        </mxCell>
        <mxCell id="vVyOFuxEOE8luWcUB-tx-33" value="&lt;div style=&quot;&quot;&gt;&lt;span style=&quot;background-color: transparent; color: light-dark(rgb(0, 0, 0), rgb(255, 255, 255));&quot;&gt;+ AutoService()&lt;/span&gt;&lt;/div&gt;&lt;div style=&quot;&quot;&gt;+ addMaster(master: Master): MasterResult&lt;/div&gt;&lt;div style=&quot;&quot;&gt;+ deleteMaster(master: Master): MasterResult&lt;/div&gt;&lt;div style=&quot;&quot;&gt;+ addGarageSpot(garageSpot: GarageSpot): GarageSpotResult&lt;/div&gt;&lt;div style=&quot;&quot;&gt;+ deleteGarageSpot(garageSpot: GarageSpot): GarageSpotResult&lt;/div&gt;&lt;div style=&quot;&quot;&gt;+ addOrder(order: Order): OrderResult&lt;/div&gt;&lt;div style=&quot;&quot;&gt;+ deleteOrder(order: Order): OrderResult&lt;/div&gt;&lt;div style=&quot;&quot;&gt;+ closeOrder(order: Order): OrderResult&lt;/div&gt;&lt;div style=&quot;&quot;&gt;+ cancelOrder(order: Order): OrderResult&lt;/div&gt;&lt;div style=&quot;&quot;&gt;+ shiftOrder(order: Order): OrderResult&lt;/div&gt;&lt;div style=&quot;&quot;&gt;&lt;br&gt;&lt;/div&gt;" style="text;strokeColor=none;fillColor=none;align=left;verticalAlign=top;spacingLeft=4;spacingRight=4;overflow=hidden;rotatable=0;points=[[0,0.5],[1,0.5]];portConstraint=eastwest;whiteSpace=wrap;html=1;" vertex="1" parent="vVyOFuxEOE8luWcUB-tx-30">
          <mxGeometry y="108" width="594" height="192" as="geometry" />
        </mxCell>
        <mxCell id="vVyOFuxEOE8luWcUB-tx-35" value="&amp;lt;&amp;lt;enumeration&amp;gt;&amp;gt;&amp;nbsp;&amp;nbsp;&lt;div&gt;OrderStatus&lt;/div&gt;" style="swimlane;fontStyle=0;childLayout=stackLayout;horizontal=1;startSize=26;fillColor=none;horizontalStack=0;resizeParent=1;resizeParentMax=0;resizeLast=0;collapsible=1;marginBottom=0;whiteSpace=wrap;html=1;" vertex="1" parent="1">
          <mxGeometry x="1070" y="680" width="140" height="104" as="geometry" />
        </mxCell>
        <mxCell id="vVyOFuxEOE8luWcUB-tx-36" value="OPEN" style="text;strokeColor=none;fillColor=none;align=left;verticalAlign=top;spacingLeft=4;spacingRight=4;overflow=hidden;rotatable=0;points=[[0,0.5],[1,0.5]];portConstraint=eastwest;whiteSpace=wrap;html=1;" vertex="1" parent="vVyOFuxEOE8luWcUB-tx-35">
          <mxGeometry y="26" width="140" height="26" as="geometry" />
        </mxCell>
        <mxCell id="vVyOFuxEOE8luWcUB-tx-37" value="CLOSED" style="text;strokeColor=none;fillColor=none;align=left;verticalAlign=top;spacingLeft=4;spacingRight=4;overflow=hidden;rotatable=0;points=[[0,0.5],[1,0.5]];portConstraint=eastwest;whiteSpace=wrap;html=1;" vertex="1" parent="vVyOFuxEOE8luWcUB-tx-35">
          <mxGeometry y="52" width="140" height="26" as="geometry" />
        </mxCell>
        <mxCell id="vVyOFuxEOE8luWcUB-tx-38" value="ORDER" style="text;strokeColor=none;fillColor=none;align=left;verticalAlign=top;spacingLeft=4;spacingRight=4;overflow=hidden;rotatable=0;points=[[0,0.5],[1,0.5]];portConstraint=eastwest;whiteSpace=wrap;html=1;" vertex="1" parent="vVyOFuxEOE8luWcUB-tx-35">
          <mxGeometry y="78" width="140" height="26" as="geometry" />
        </mxCell>
        <mxCell id="vVyOFuxEOE8luWcUB-tx-47" value="&amp;lt;&amp;lt;enumeration&amp;gt;&amp;gt;&amp;nbsp;&amp;nbsp;&lt;div&gt;MasterResult&lt;/div&gt;" style="swimlane;fontStyle=0;childLayout=stackLayout;horizontal=1;startSize=26;fillColor=none;horizontalStack=0;resizeParent=1;resizeParentMax=0;resizeLast=0;collapsible=1;marginBottom=0;whiteSpace=wrap;html=1;" vertex="1" parent="1">
          <mxGeometry x="180" y="1670" width="140" height="130" as="geometry" />
        </mxCell>
        <mxCell id="vVyOFuxEOE8luWcUB-tx-48" value="SUCCES_ADDED" style="text;strokeColor=none;fillColor=none;align=left;verticalAlign=top;spacingLeft=4;spacingRight=4;overflow=hidden;rotatable=0;points=[[0,0.5],[1,0.5]];portConstraint=eastwest;whiteSpace=wrap;html=1;" vertex="1" parent="vVyOFuxEOE8luWcUB-tx-47">
          <mxGeometry y="26" width="140" height="26" as="geometry" />
        </mxCell>
        <mxCell id="vVyOFuxEOE8luWcUB-tx-49" value="SUCCES_DELETED" style="text;strokeColor=none;fillColor=none;align=left;verticalAlign=top;spacingLeft=4;spacingRight=4;overflow=hidden;rotatable=0;points=[[0,0.5],[1,0.5]];portConstraint=eastwest;whiteSpace=wrap;html=1;" vertex="1" parent="vVyOFuxEOE8luWcUB-tx-47">
          <mxGeometry y="52" width="140" height="26" as="geometry" />
        </mxCell>
        <mxCell id="vVyOFuxEOE8luWcUB-tx-50" value="ALREADY_EXIST" style="text;strokeColor=none;fillColor=none;align=left;verticalAlign=top;spacingLeft=4;spacingRight=4;overflow=hidden;rotatable=0;points=[[0,0.5],[1,0.5]];portConstraint=eastwest;whiteSpace=wrap;html=1;" vertex="1" parent="vVyOFuxEOE8luWcUB-tx-47">
          <mxGeometry y="78" width="140" height="26" as="geometry" />
        </mxCell>
        <mxCell id="vVyOFuxEOE8luWcUB-tx-64" value="NOT_FOUND" style="text;strokeColor=none;fillColor=none;align=left;verticalAlign=top;spacingLeft=4;spacingRight=4;overflow=hidden;rotatable=0;points=[[0,0.5],[1,0.5]];portConstraint=eastwest;whiteSpace=wrap;html=1;" vertex="1" parent="vVyOFuxEOE8luWcUB-tx-47">
          <mxGeometry y="104" width="140" height="26" as="geometry" />
        </mxCell>
        <mxCell id="vVyOFuxEOE8luWcUB-tx-51" value="&amp;lt;&amp;lt;enumeration&amp;gt;&amp;gt;&amp;nbsp;&amp;nbsp;&lt;div&gt;OrderResult&lt;/div&gt;" style="swimlane;fontStyle=0;childLayout=stackLayout;horizontal=1;startSize=26;fillColor=none;horizontalStack=0;resizeParent=1;resizeParentMax=0;resizeLast=0;collapsible=1;marginBottom=0;whiteSpace=wrap;html=1;" vertex="1" parent="1">
          <mxGeometry x="560" y="1570" width="250" height="312" as="geometry" />
        </mxCell>
        <mxCell id="vVyOFuxEOE8luWcUB-tx-52" value="SUCCESS_ADDED" style="text;strokeColor=none;fillColor=none;align=left;verticalAlign=top;spacingLeft=4;spacingRight=4;overflow=hidden;rotatable=0;points=[[0,0.5],[1,0.5]];portConstraint=eastwest;whiteSpace=wrap;html=1;" vertex="1" parent="vVyOFuxEOE8luWcUB-tx-51">
          <mxGeometry y="26" width="250" height="26" as="geometry" />
        </mxCell>
        <mxCell id="vVyOFuxEOE8luWcUB-tx-53" value="SUCCESS_DELETED" style="text;strokeColor=none;fillColor=none;align=left;verticalAlign=top;spacingLeft=4;spacingRight=4;overflow=hidden;rotatable=0;points=[[0,0.5],[1,0.5]];portConstraint=eastwest;whiteSpace=wrap;html=1;" vertex="1" parent="vVyOFuxEOE8luWcUB-tx-51">
          <mxGeometry y="52" width="250" height="26" as="geometry" />
        </mxCell>
        <mxCell id="vVyOFuxEOE8luWcUB-tx-54" value="SUCCESS_CLOSED" style="text;strokeColor=none;fillColor=none;align=left;verticalAlign=top;spacingLeft=4;spacingRight=4;overflow=hidden;rotatable=0;points=[[0,0.5],[1,0.5]];portConstraint=eastwest;whiteSpace=wrap;html=1;" vertex="1" parent="vVyOFuxEOE8luWcUB-tx-51">
          <mxGeometry y="78" width="250" height="26" as="geometry" />
        </mxCell>
        <mxCell id="vVyOFuxEOE8luWcUB-tx-55" value="SUCCESS_CANCELLED" style="text;strokeColor=none;fillColor=none;align=left;verticalAlign=top;spacingLeft=4;spacingRight=4;overflow=hidden;rotatable=0;points=[[0,0.5],[1,0.5]];portConstraint=eastwest;whiteSpace=wrap;html=1;" vertex="1" parent="vVyOFuxEOE8luWcUB-tx-51">
          <mxGeometry y="104" width="250" height="26" as="geometry" />
        </mxCell>
        <mxCell id="vVyOFuxEOE8luWcUB-tx-57" value="SUCCESS_SHIFTED" style="text;strokeColor=none;fillColor=none;align=left;verticalAlign=top;spacingLeft=4;spacingRight=4;overflow=hidden;rotatable=0;points=[[0,0.5],[1,0.5]];portConstraint=eastwest;whiteSpace=wrap;html=1;" vertex="1" parent="vVyOFuxEOE8luWcUB-tx-51">
          <mxGeometry y="130" width="250" height="26" as="geometry" />
        </mxCell>
        <mxCell id="vVyOFuxEOE8luWcUB-tx-58" value="MASTER_BUSY" style="text;strokeColor=none;fillColor=none;align=left;verticalAlign=top;spacingLeft=4;spacingRight=4;overflow=hidden;rotatable=0;points=[[0,0.5],[1,0.5]];portConstraint=eastwest;whiteSpace=wrap;html=1;" vertex="1" parent="vVyOFuxEOE8luWcUB-tx-51">
          <mxGeometry y="156" width="250" height="26" as="geometry" />
        </mxCell>
        <mxCell id="vVyOFuxEOE8luWcUB-tx-59" value="MASTER_BUSY_AND_SPOT_OCCUPIED" style="text;strokeColor=none;fillColor=none;align=left;verticalAlign=top;spacingLeft=4;spacingRight=4;overflow=hidden;rotatable=0;points=[[0,0.5],[1,0.5]];portConstraint=eastwest;whiteSpace=wrap;html=1;" vertex="1" parent="vVyOFuxEOE8luWcUB-tx-51">
          <mxGeometry y="182" width="250" height="26" as="geometry" />
        </mxCell>
        <mxCell id="vVyOFuxEOE8luWcUB-tx-60" value="SPOT_OCCUPIED" style="text;strokeColor=none;fillColor=none;align=left;verticalAlign=top;spacingLeft=4;spacingRight=4;overflow=hidden;rotatable=0;points=[[0,0.5],[1,0.5]];portConstraint=eastwest;whiteSpace=wrap;html=1;" vertex="1" parent="vVyOFuxEOE8luWcUB-tx-51">
          <mxGeometry y="208" width="250" height="26" as="geometry" />
        </mxCell>
        <mxCell id="vVyOFuxEOE8luWcUB-tx-61" value="ALREADY_EXIST" style="text;strokeColor=none;fillColor=none;align=left;verticalAlign=top;spacingLeft=4;spacingRight=4;overflow=hidden;rotatable=0;points=[[0,0.5],[1,0.5]];portConstraint=eastwest;whiteSpace=wrap;html=1;" vertex="1" parent="vVyOFuxEOE8luWcUB-tx-51">
          <mxGeometry y="234" width="250" height="26" as="geometry" />
        </mxCell>
        <mxCell id="vVyOFuxEOE8luWcUB-tx-62" value="NOT_FOUND" style="text;strokeColor=none;fillColor=none;align=left;verticalAlign=top;spacingLeft=4;spacingRight=4;overflow=hidden;rotatable=0;points=[[0,0.5],[1,0.5]];portConstraint=eastwest;whiteSpace=wrap;html=1;" vertex="1" parent="vVyOFuxEOE8luWcUB-tx-51">
          <mxGeometry y="260" width="250" height="26" as="geometry" />
        </mxCell>
        <mxCell id="vVyOFuxEOE8luWcUB-tx-63" value="ALREADY_CLOSED_OR_CANCELED" style="text;strokeColor=none;fillColor=none;align=left;verticalAlign=top;spacingLeft=4;spacingRight=4;overflow=hidden;rotatable=0;points=[[0,0.5],[1,0.5]];portConstraint=eastwest;whiteSpace=wrap;html=1;" vertex="1" parent="vVyOFuxEOE8luWcUB-tx-51">
          <mxGeometry y="286" width="250" height="26" as="geometry" />
        </mxCell>
        <mxCell id="vVyOFuxEOE8luWcUB-tx-65" value="&amp;lt;&amp;lt;enumeration&amp;gt;&amp;gt;&amp;nbsp;&amp;nbsp;&lt;div&gt;GarageSpotResult&lt;/div&gt;" style="swimlane;fontStyle=0;childLayout=stackLayout;horizontal=1;startSize=26;fillColor=none;horizontalStack=0;resizeParent=1;resizeParentMax=0;resizeLast=0;collapsible=1;marginBottom=0;whiteSpace=wrap;html=1;" vertex="1" parent="1">
          <mxGeometry x="-210" y="1791" width="140" height="130" as="geometry" />
        </mxCell>
        <mxCell id="vVyOFuxEOE8luWcUB-tx-66" value="SUCCES_ADDED" style="text;strokeColor=none;fillColor=none;align=left;verticalAlign=top;spacingLeft=4;spacingRight=4;overflow=hidden;rotatable=0;points=[[0,0.5],[1,0.5]];portConstraint=eastwest;whiteSpace=wrap;html=1;" vertex="1" parent="vVyOFuxEOE8luWcUB-tx-65">
          <mxGeometry y="26" width="140" height="26" as="geometry" />
        </mxCell>
        <mxCell id="vVyOFuxEOE8luWcUB-tx-67" value="SUCCES_DELETED" style="text;strokeColor=none;fillColor=none;align=left;verticalAlign=top;spacingLeft=4;spacingRight=4;overflow=hidden;rotatable=0;points=[[0,0.5],[1,0.5]];portConstraint=eastwest;whiteSpace=wrap;html=1;" vertex="1" parent="vVyOFuxEOE8luWcUB-tx-65">
          <mxGeometry y="52" width="140" height="26" as="geometry" />
        </mxCell>
        <mxCell id="vVyOFuxEOE8luWcUB-tx-68" value="ALREADY_EXIST" style="text;strokeColor=none;fillColor=none;align=left;verticalAlign=top;spacingLeft=4;spacingRight=4;overflow=hidden;rotatable=0;points=[[0,0.5],[1,0.5]];portConstraint=eastwest;whiteSpace=wrap;html=1;" vertex="1" parent="vVyOFuxEOE8luWcUB-tx-65">
          <mxGeometry y="78" width="140" height="26" as="geometry" />
        </mxCell>
        <mxCell id="vVyOFuxEOE8luWcUB-tx-69" value="NOT_FOUND" style="text;strokeColor=none;fillColor=none;align=left;verticalAlign=top;spacingLeft=4;spacingRight=4;overflow=hidden;rotatable=0;points=[[0,0.5],[1,0.5]];portConstraint=eastwest;whiteSpace=wrap;html=1;" vertex="1" parent="vVyOFuxEOE8luWcUB-tx-65">
          <mxGeometry y="104" width="140" height="26" as="geometry" />
        </mxCell>
        <mxCell id="vVyOFuxEOE8luWcUB-tx-70" value="" style="endArrow=diamond;html=1;rounded=0;endFill=0;endSize=20;edgeStyle=orthogonalEdgeStyle;entryX=0.735;entryY=-0.005;entryDx=0;entryDy=0;entryPerimeter=0;exitX=0.284;exitY=0.996;exitDx=0;exitDy=0;exitPerimeter=0;" edge="1" parent="1" source="vVyOFuxEOE8luWcUB-tx-12" target="vVyOFuxEOE8luWcUB-tx-18">
          <mxGeometry width="50" height="50" relative="1" as="geometry">
            <mxPoint x="1325" y="1260" as="sourcePoint" />
            <mxPoint x="1130" y="1400" as="targetPoint" />
            <Array as="points">
              <mxPoint x="1325" y="1275" />
              <mxPoint x="1130" y="1275" />
              <mxPoint x="1130" y="1356" />
              <mxPoint x="1131" y="1356" />
            </Array>
          </mxGeometry>
        </mxCell>
        <mxCell id="vVyOFuxEOE8luWcUB-tx-71" value="" style="endArrow=diamond;html=1;rounded=0;endFill=0;entryX=0.5;entryY=0;entryDx=0;entryDy=0;exitX=0.5;exitY=0.999;exitDx=0;exitDy=0;exitPerimeter=0;endSize=20;edgeStyle=orthogonalEdgeStyle;" edge="1" parent="1" target="vVyOFuxEOE8luWcUB-tx-22">
          <mxGeometry width="50" height="50" relative="1" as="geometry">
            <mxPoint x="349.40999999999997" y="1120" as="sourcePoint" />
            <mxPoint x="349.40999999999997" y="1250" as="targetPoint" />
          </mxGeometry>
        </mxCell>
        <mxCell id="vVyOFuxEOE8luWcUB-tx-72" value="" style="endArrow=diamond;html=1;rounded=0;endFill=0;entryX=0.5;entryY=0;entryDx=0;entryDy=0;exitX=0.499;exitY=0.987;exitDx=0;exitDy=0;exitPerimeter=0;endSize=20;edgeStyle=orthogonalEdgeStyle;" edge="1" parent="1" source="vVyOFuxEOE8luWcUB-tx-17" target="vVyOFuxEOE8luWcUB-tx-26">
          <mxGeometry width="50" height="50" relative="1" as="geometry">
            <mxPoint x="141.44000000000005" y="1059.508" as="sourcePoint" />
            <mxPoint x="130" y="1408.5" as="targetPoint" />
            <Array as="points">
              <mxPoint x="-170" y="1340" />
              <mxPoint x="2" y="1340" />
            </Array>
          </mxGeometry>
        </mxCell>
        <mxCell id="vVyOFuxEOE8luWcUB-tx-76" value="" style="endArrow=openThin;html=1;rounded=0;dashed=1;endFill=0;endSize=8;edgeStyle=orthogonalEdgeStyle;exitX=0.364;exitY=0.004;exitDx=0;exitDy=0;exitPerimeter=0;entryX=0.805;entryY=1.006;entryDx=0;entryDy=0;entryPerimeter=0;" edge="1" parent="1" source="vVyOFuxEOE8luWcUB-tx-18" target="vVyOFuxEOE8luWcUB-tx-4">
          <mxGeometry width="50" height="50" relative="1" as="geometry">
            <mxPoint x="715" y="1370" as="sourcePoint" />
            <mxPoint x="400" y="1160" as="targetPoint" />
            <Array as="points">
              <mxPoint x="715" y="1370" />
              <mxPoint x="715" y="1260" />
              <mxPoint x="399" y="1260" />
            </Array>
          </mxGeometry>
        </mxCell>
        <mxCell id="vVyOFuxEOE8luWcUB-tx-77" value="" style="endArrow=openThin;html=1;rounded=0;dashed=1;endFill=0;endSize=8;edgeStyle=orthogonalEdgeStyle;entryX=0.75;entryY=1;entryDx=0;entryDy=0;entryPerimeter=0;exitX=0.154;exitY=-0.002;exitDx=0;exitDy=0;exitPerimeter=0;" edge="1" parent="1" source="vVyOFuxEOE8luWcUB-tx-18" target="vVyOFuxEOE8luWcUB-tx-17">
          <mxGeometry width="50" height="50" relative="1" as="geometry">
            <mxPoint x="660" y="1347" as="sourcePoint" />
            <mxPoint x="-130" y="1070" as="targetPoint" />
            <Array as="points">
              <mxPoint x="980" y="1400" />
              <mxPoint x="660" y="1400" />
              <mxPoint x="660" y="1300" />
              <mxPoint x="-130" y="1300" />
            </Array>
          </mxGeometry>
        </mxCell>
        <mxCell id="vVyOFuxEOE8luWcUB-tx-79" value="" style="endArrow=openThin;html=1;rounded=0;dashed=1;endFill=0;endSize=8;edgeStyle=orthogonalEdgeStyle;entryX=0.122;entryY=1.029;entryDx=0;entryDy=0;entryPerimeter=0;exitX=0.118;exitY=0;exitDx=0;exitDy=0;exitPerimeter=0;" edge="1" parent="1" source="vVyOFuxEOE8luWcUB-tx-30" target="vVyOFuxEOE8luWcUB-tx-17">
          <mxGeometry width="50" height="50" relative="1" as="geometry">
            <mxPoint x="160" y="2230" as="sourcePoint" />
            <mxPoint x="-230" y="1070" as="targetPoint" />
            <Array as="points">
              <mxPoint x="160" y="2170" />
              <mxPoint x="-230" y="2170" />
            </Array>
          </mxGeometry>
        </mxCell>
        <mxCell id="vVyOFuxEOE8luWcUB-tx-80" value="" style="endArrow=openThin;html=1;rounded=0;dashed=1;endFill=0;endSize=8;edgeStyle=orthogonalEdgeStyle;exitX=0.893;exitY=0;exitDx=0;exitDy=0;exitPerimeter=0;entryX=0.522;entryY=1.002;entryDx=0;entryDy=0;entryPerimeter=0;" edge="1" parent="1" source="vVyOFuxEOE8luWcUB-tx-30" target="vVyOFuxEOE8luWcUB-tx-12">
          <mxGeometry width="50" height="50" relative="1" as="geometry">
            <mxPoint x="470" y="1770" as="sourcePoint" />
            <mxPoint x="1380" y="1310" as="targetPoint" />
            <Array as="points">
              <mxPoint x="626" y="2220" />
              <mxPoint x="1380" y="2220" />
            </Array>
          </mxGeometry>
        </mxCell>
        <mxCell id="vVyOFuxEOE8luWcUB-tx-81" value="" style="endArrow=openThin;html=1;rounded=0;dashed=1;endFill=0;endSize=8;edgeStyle=orthogonalEdgeStyle;entryX=0.317;entryY=1.014;entryDx=0;entryDy=0;entryPerimeter=0;exitX=0.5;exitY=0;exitDx=0;exitDy=0;" edge="1" parent="1" source="vVyOFuxEOE8luWcUB-tx-30" target="vVyOFuxEOE8luWcUB-tx-4">
          <mxGeometry width="50" height="50" relative="1" as="geometry">
            <mxPoint x="360" y="1750" as="sourcePoint" />
            <mxPoint x="310" y="1150" as="targetPoint" />
            <Array as="points">
              <mxPoint x="387" y="1990" />
              <mxPoint x="140" y="1990" />
              <mxPoint x="140" y="1260" />
              <mxPoint x="321" y="1260" />
            </Array>
          </mxGeometry>
        </mxCell>
        <mxCell id="vVyOFuxEOE8luWcUB-tx-82" value="" style="endArrow=diamond;html=1;rounded=0;endFill=1;entryX=0.359;entryY=-0.01;entryDx=0;entryDy=0;endSize=20;edgeStyle=orthogonalEdgeStyle;entryPerimeter=0;exitX=0.492;exitY=1.017;exitDx=0;exitDy=0;exitPerimeter=0;" edge="1" parent="1" source="vVyOFuxEOE8luWcUB-tx-29" target="vVyOFuxEOE8luWcUB-tx-30">
          <mxGeometry width="50" height="50" relative="1" as="geometry">
            <mxPoint y="1650" as="sourcePoint" />
            <mxPoint x="320.59000000000003" y="1770" as="targetPoint" />
            <Array as="points">
              <mxPoint y="2040" />
              <mxPoint x="321" y="2040" />
              <mxPoint x="321" y="2257" />
            </Array>
          </mxGeometry>
        </mxCell>
        <mxCell id="vVyOFuxEOE8luWcUB-tx-83" value="" style="endArrow=diamond;html=1;rounded=0;endFill=1;entryX=0.574;entryY=-0.002;entryDx=0;entryDy=0;endSize=20;edgeStyle=orthogonalEdgeStyle;entryPerimeter=0;exitX=0.69;exitY=1.009;exitDx=0;exitDy=0;exitPerimeter=0;" edge="1" parent="1" source="vVyOFuxEOE8luWcUB-tx-25" target="vVyOFuxEOE8luWcUB-tx-30">
          <mxGeometry width="50" height="50" relative="1" as="geometry">
            <mxPoint x="380" y="1630" as="sourcePoint" />
            <mxPoint x="381" y="1775" as="targetPoint" />
            <Array as="points">
              <mxPoint x="380" y="1890" />
              <mxPoint x="431" y="1890" />
            </Array>
          </mxGeometry>
        </mxCell>
        <mxCell id="vVyOFuxEOE8luWcUB-tx-84" value="" style="endArrow=none;html=1;rounded=0;exitX=0.75;exitY=0;exitDx=0;exitDy=0;edgeStyle=orthogonalEdgeStyle;startArrow=diamond;startFill=1;endSize=6;startSize=20;entryX=0.53;entryY=1.021;entryDx=0;entryDy=0;entryPerimeter=0;" edge="1" parent="1" source="vVyOFuxEOE8luWcUB-tx-30" target="vVyOFuxEOE8luWcUB-tx-21">
          <mxGeometry width="50" height="50" relative="1" as="geometry">
            <mxPoint x="460" y="1780" as="sourcePoint" />
            <mxPoint x="1080" y="1790" as="targetPoint" />
            <Array as="points">
              <mxPoint x="549" y="2170" />
              <mxPoint x="1078" y="2170" />
            </Array>
          </mxGeometry>
        </mxCell>
        <mxCell id="vVyOFuxEOE8luWcUB-tx-86" value="" style="endArrow=openThin;html=1;rounded=0;dashed=1;strokeColor=default;align=center;verticalAlign=middle;fontFamily=Helvetica;fontSize=11;fontColor=default;labelBackgroundColor=default;edgeStyle=orthogonalEdgeStyle;endSize=8;entryX=0.47;entryY=1.105;entryDx=0;entryDy=0;entryPerimeter=0;exitX=0.688;exitY=-0.007;exitDx=0;exitDy=0;exitPerimeter=0;endFill=0;" edge="1" parent="1" source="vVyOFuxEOE8luWcUB-tx-30" target="vVyOFuxEOE8luWcUB-tx-63">
          <mxGeometry width="50" height="50" relative="1" as="geometry">
            <mxPoint x="550" y="2110" as="sourcePoint" />
            <mxPoint x="600" y="2060" as="targetPoint" />
            <Array as="points">
              <mxPoint x="515" y="1990" />
              <mxPoint x="677" y="1990" />
            </Array>
          </mxGeometry>
        </mxCell>
        <mxCell id="vVyOFuxEOE8luWcUB-tx-87" style="edgeStyle=orthogonalEdgeStyle;shape=connector;rounded=0;orthogonalLoop=1;jettySize=auto;html=1;entryX=1;entryY=0.5;entryDx=0;entryDy=0;dashed=1;strokeColor=default;align=center;verticalAlign=middle;fontFamily=Helvetica;fontSize=11;fontColor=default;labelBackgroundColor=default;endArrow=openThin;endFill=0;endSize=8;" edge="1" parent="1" source="vVyOFuxEOE8luWcUB-tx-21" target="vVyOFuxEOE8luWcUB-tx-54">
          <mxGeometry relative="1" as="geometry" />
        </mxCell>
        <mxCell id="vVyOFuxEOE8luWcUB-tx-89" style="edgeStyle=orthogonalEdgeStyle;shape=connector;rounded=0;orthogonalLoop=1;jettySize=auto;html=1;entryX=0.486;entryY=0.962;entryDx=0;entryDy=0;entryPerimeter=0;dashed=1;strokeColor=default;align=center;verticalAlign=middle;fontFamily=Helvetica;fontSize=11;fontColor=default;labelBackgroundColor=default;endArrow=openThin;endFill=0;endSize=8;" edge="1" parent="1" source="vVyOFuxEOE8luWcUB-tx-30" target="vVyOFuxEOE8luWcUB-tx-64">
          <mxGeometry relative="1" as="geometry">
            <Array as="points">
              <mxPoint x="400" y="1950" />
              <mxPoint x="248" y="1950" />
            </Array>
          </mxGeometry>
        </mxCell>
        <mxCell id="vVyOFuxEOE8luWcUB-tx-90" style="edgeStyle=orthogonalEdgeStyle;shape=connector;rounded=0;orthogonalLoop=1;jettySize=auto;html=1;entryX=0.455;entryY=0.003;entryDx=0;entryDy=0;entryPerimeter=0;dashed=1;strokeColor=default;align=center;verticalAlign=middle;fontFamily=Helvetica;fontSize=11;fontColor=default;labelBackgroundColor=default;endArrow=openThin;endFill=0;endSize=8;" edge="1" parent="1" source="vVyOFuxEOE8luWcUB-tx-25" target="vVyOFuxEOE8luWcUB-tx-47">
          <mxGeometry relative="1" as="geometry" />
        </mxCell>
        <mxCell id="vVyOFuxEOE8luWcUB-tx-91" style="edgeStyle=orthogonalEdgeStyle;shape=connector;rounded=0;orthogonalLoop=1;jettySize=auto;html=1;exitX=0.25;exitY=0;exitDx=0;exitDy=0;entryX=0.432;entryY=0.953;entryDx=0;entryDy=0;entryPerimeter=0;dashed=1;strokeColor=default;align=center;verticalAlign=middle;fontFamily=Helvetica;fontSize=11;fontColor=default;labelBackgroundColor=default;endArrow=openThin;endFill=0;endSize=8;" edge="1" parent="1" source="vVyOFuxEOE8luWcUB-tx-30" target="vVyOFuxEOE8luWcUB-tx-69">
          <mxGeometry relative="1" as="geometry">
            <Array as="points">
              <mxPoint x="239" y="2110" />
              <mxPoint x="-149" y="2110" />
            </Array>
          </mxGeometry>
        </mxCell>
        <mxCell id="vVyOFuxEOE8luWcUB-tx-92" style="edgeStyle=orthogonalEdgeStyle;shape=connector;rounded=0;orthogonalLoop=1;jettySize=auto;html=1;entryX=0.455;entryY=0.011;entryDx=0;entryDy=0;entryPerimeter=0;dashed=1;strokeColor=default;align=center;verticalAlign=middle;fontFamily=Helvetica;fontSize=11;fontColor=default;labelBackgroundColor=default;endArrow=openThin;endFill=0;endSize=8;" edge="1" parent="1" source="vVyOFuxEOE8luWcUB-tx-29" target="vVyOFuxEOE8luWcUB-tx-65">
          <mxGeometry relative="1" as="geometry" />
        </mxCell>
      </root>
    </mxGraphModel>
  </diagram>
</mxfile>
